<svg width="24" height="24" fill="none" xmlns="http://www.w3.org/2000/svg"><g clip-path="url(#a)" fill-rule="evenodd" clip-rule="evenodd" fill="#111"><path d="M20.485 4.575a.75.75 0 1 0-1.06-1.06L12 10.94 4.575 3.515a.75.75 0 0 0-1.06 1.06L10.939 12l-7.424 7.425a.75.75 0 0 0 1.06 1.06L12 13.061l7.424 7.424a.75.75 0 0 0 1.061-1.06L13.061 12l7.424-7.425z"/><path d="M20.485 4.575a.75.75 0 1 0-1.06-1.06L12 10.94 4.575 3.515a.75.75 0 0 0-1.06 1.06L10.939 12l-7.424 7.425a.75.75 0 0 0 1.06 1.06L12 13.061l7.424 7.424a.75.75 0 0 0 1.061-1.06L13.061 12l7.424-7.425z"/></g><defs><clipPath id="a"><path fill="#fff" d="M0 0h24v24H0z"/></clipPath></defs></svg>