<svg width="24" height="24" fill="none" xmlns="http://www.w3.org/2000/svg"><g clip-path="url(#a)" fill-rule="evenodd" clip-rule="evenodd" fill="#111"><path d="M23.25 12.75a.75.75 0 1 0 0-1.5h-10.5V.75a.75.75 0 0 0-1.5 0v10.5H.75a.75.75 0 0 0 0 1.5h10.5v10.5a.75.75 0 0 0 1.5 0v-10.5h10.5z"/><path d="M23.25 12.75a.75.75 0 1 0 0-1.5h-10.5V.75a.75.75 0 0 0-1.5 0v10.5H.75a.75.75 0 0 0 0 1.5h10.5v10.5a.75.75 0 0 0 1.5 0v-10.5h10.5z"/></g><defs><clipPath id="a"><path fill="#fff" d="M0 0h24v24H0z"/></clipPath></defs></svg>