<svg width="24" height="24" fill="none" xmlns="http://www.w3.org/2000/svg"><g clip-path="url(#a)" fill-rule="evenodd" clip-rule="evenodd" fill="#111"><path d="M18.5 0h4A1.5 1.5 0 0 1 24 1.5v21a1.5 1.5 0 0 1-1.5 1.5h-4a1.5 1.5 0 0 1-1.5-1.5v-21A1.5 1.5 0 0 1 18.5 0zm-16 1.385L13 10.863a1.538 1.538 0 0 1 0 2.274L2.5 22.615A1.5 1.5 0 0 1 0 21.479V2.521a1.5 1.5 0 0 1 2.5-1.136z"/><path d="M18.5 0h4A1.5 1.5 0 0 1 24 1.5v21a1.5 1.5 0 0 1-1.5 1.5h-4a1.5 1.5 0 0 1-1.5-1.5v-21A1.5 1.5 0 0 1 18.5 0zm-16 1.385L13 10.863a1.538 1.538 0 0 1 0 2.274L2.5 22.615A1.5 1.5 0 0 1 0 21.479V2.521a1.5 1.5 0 0 1 2.5-1.136z"/></g><defs><clipPath id="a"><path fill="#fff" d="M0 0h24v24H0z"/></clipPath></defs></svg>