<svg width="24" height="24" fill="none" xmlns="http://www.w3.org/2000/svg"><path fill-rule="evenodd" clip-rule="evenodd" d="M4.5 1h4A1.5 1.5 0 0 1 10 2.5v19A1.5 1.5 0 0 1 8.5 23h-4A1.5 1.5 0 0 1 3 21.5v-19A1.5 1.5 0 0 1 4.5 1zm11 0h4A1.5 1.5 0 0 1 21 2.5v19a1.5 1.5 0 0 1-1.5 1.5h-4a1.5 1.5 0 0 1-1.5-1.5v-19A1.5 1.5 0 0 1 15.5 1z" fill="#111"/><path fill-rule="evenodd" clip-rule="evenodd" d="M4.5 1h4A1.5 1.5 0 0 1 10 2.5v19A1.5 1.5 0 0 1 8.5 23h-4A1.5 1.5 0 0 1 3 21.5v-19A1.5 1.5 0 0 1 4.5 1zm11 0h4A1.5 1.5 0 0 1 21 2.5v19a1.5 1.5 0 0 1-1.5 1.5h-4a1.5 1.5 0 0 1-1.5-1.5v-19A1.5 1.5 0 0 1 15.5 1z" fill="#111"/></svg>