<svg width="24" height="24" fill="none" xmlns="http://www.w3.org/2000/svg"><g clip-path="url(#a)" fill-rule="evenodd" clip-rule="evenodd" fill="#111"><path d="M1.5 0h4A1.5 1.5 0 0 1 7 1.5v21A1.5 1.5 0 0 1 5.5 24h-4A1.5 1.5 0 0 1 0 22.5v-21A1.5 1.5 0 0 1 1.5 0zM11 10.863l10.5-9.478A1.5 1.5 0 0 1 24 2.521v18.958a1.5 1.5 0 0 1-2.5 1.136L11 13.136a1.54 1.54 0 0 1 0-2.273z"/><path d="M1.5 0h4A1.5 1.5 0 0 1 7 1.5v21A1.5 1.5 0 0 1 5.5 24h-4A1.5 1.5 0 0 1 0 22.5v-21A1.5 1.5 0 0 1 1.5 0zM11 10.863l10.5-9.478A1.5 1.5 0 0 1 24 2.521v18.958a1.5 1.5 0 0 1-2.5 1.136L11 13.136a1.54 1.54 0 0 1 0-2.273z"/></g><defs><clipPath id="a"><path fill="#fff" d="M0 0h24v24H0z"/></clipPath></defs></svg>