<svg width="24" height="24" fill="none" xmlns="http://www.w3.org/2000/svg"><g clip-path="url(#a)" stroke="#111" stroke-linecap="round" stroke-linejoin="round"><path d="M3.85 8.605a7.064 7.064 0 0 0 7.843 1.578"/><path d="M7.5 15a4.25 4.25 0 1 0 0-8.5 4.25 4.25 0 0 0 0 8.5zm-7 8.5a7 7 0 1 1 14 0H.5zm13.48-11.466c.49.192 1 .326 1.52.4v3.07c.5-.5 3.5-3 4-3.461a6.014 6.014 0 0 0 4-5.539A6.265 6.265 0 0 0 17 .5a6.48 6.48 0 0 0-6.122 4"/><path d="M14.251 6.241a.25.25 0 1 1 0 .5.25.25 0 0 1 0-.5zm2.749 0a.25.25 0 1 1 0 .5.25.25 0 0 1 0-.5m2.75 0a.249.249 0 0 1 .231.346.25.25 0 0 1-.408.081.25.25 0 0 1 0-.354.25.25 0 0 1 .177-.073z"/></g><defs><clipPath id="a"><path fill="#fff" d="M0 0h24v24H0z"/></clipPath></defs></svg>