<svg width="24" height="24" fill="none" xmlns="http://www.w3.org/2000/svg"><g clip-path="url(#a)" stroke="#111" stroke-linecap="round" stroke-linejoin="round"><path d="M12.056 1C5.7 1 .556 5.253.556 10.5a8.737 8.737 0 0 0 3.4 6.741L1.556 23l6.372-3.641a13.6 13.6 0 0 0 4.128.641c6.351 0 11.5-4.253 11.5-9.5S18.407 1 12.056 1z"/><path d="M9.056 8a3 3 0 1 1 4.2 2.751 2 2 0 0 0-1.2 1.833V13m0 2.25a.25.25 0 1 1 0 .5.25.25 0 0 1 0-.5z"/></g><defs><clipPath id="a"><path fill="#fff" d="M0 0h24v24H0z"/></clipPath></defs></svg>