<svg width="24" height="24" fill="none" xmlns="http://www.w3.org/2000/svg"><g clip-path="url(#a)" stroke-linecap="round" stroke-linejoin="round"><path d="M23.95 12c0 6.6-5.35 11.95-11.95 11.95S.05 18.6.05 12 5.4.05 12 .05 23.95 5.4 23.95 12z" fill="#fff" stroke="#fff" stroke-width=".1"/><path d="M12 20.998a9 9 0 1 0 0-18 9 9 0 0 0 0 18z" stroke="#111"/><path d="M12 16.498a4.5 4.5 0 1 0 0-9 4.5 4.5 0 0 0 0 9zm11-4.5H1m11-11v22m0-21v20" stroke="#111"/></g><defs><clipPath id="a"><path fill="#fff" d="M0 0h24v24H0z"/></clipPath></defs></svg>