<svg width="24" height="24" fill="none" xmlns="http://www.w3.org/2000/svg"><path d="M21.5 2.5h-19a2 2 0 0 0-2 2v15a2 2 0 0 0 2 2h19a2 2 0 0 0 2-2v-15a2 2 0 0 0-2-2z" stroke="#111" stroke-linecap="round" stroke-linejoin="round"/><path d="M21.5 2.5h-19a2 2 0 0 0-2 2v15a2 2 0 0 0 2 2h19a2 2 0 0 0 2-2v-15a2 2 0 0 0-2-2zm-21 5h23m-23 0h23" stroke="#111" stroke-linecap="round" stroke-linejoin="round"/><path d="M4 4.75a.25.25 0 1 1 0 .5.25.25 0 0 1 0-.5" stroke="#111" stroke-linecap="round" stroke-linejoin="round"/><path d="M4 4.75a.25.25 0 1 1 0 .5.25.25 0 0 1 0-.5m3 0a.25.25 0 1 1 0 .5.25.25 0 0 1 0-.5z" stroke="#111" stroke-linecap="round" stroke-linejoin="round"/><path d="M7 4.75a.25.25 0 1 1 0 .5.25.25 0 0 1 0-.5zm3 0a.25.25 0 1 1 0 .5.25.25 0 0 1 0-.5z" stroke="#111" stroke-linecap="round" stroke-linejoin="round"/><path d="M10 4.75a.25.25 0 1 1 0 .5.25.25 0 0 1 0-.5zM9 13.5H4a.5.5 0 0 0-.5.5v4a.5.5 0 0 0 .5.5h5a.5.5 0 0 0 .5-.5v-4a.5.5 0 0 0-.5-.5z" stroke="#111" stroke-linecap="round" stroke-linejoin="round"/><path d="M9 13.5H4a.5.5 0 0 0-.5.5v4a.5.5 0 0 0 .5.5h5a.5.5 0 0 0 .5-.5v-4a.5.5 0 0 0-.5-.5zm-5.5-3H17m-13.5 0H17m-4.5 3h7m-7 0h7m-7 3h7m-7 0h7M3.66 13.633l5.68 4.734m-5.68-4.734 5.68 4.734m-5.68 0 5.68-4.734m-5.68 4.734 5.68-4.734" stroke="#111" stroke-linecap="round" stroke-linejoin="round"/></svg>