<svg width="24" height="24" fill="none" xmlns="http://www.w3.org/2000/svg"><path d="M21.5 2h-19a2 2 0 0 0-2 2v16a2 2 0 0 0 2 2h19a2 2 0 0 0 2-2V4a2 2 0 0 0-2-2z" stroke="#111" stroke-linecap="round" stroke-linejoin="round"/><path d="M21.5 2h-19a2 2 0 0 0-2 2v16a2 2 0 0 0 2 2h19a2 2 0 0 0 2-2V4a2 2 0 0 0-2-2zM.5 7h23M.5 7h23" stroke="#111" stroke-linecap="round" stroke-linejoin="round"/><path d="M4 4.25a.25.25 0 1 1 0 .5.25.25 0 0 1 0-.5" stroke="#111" stroke-linecap="round" stroke-linejoin="round"/><path d="M4 4.25a.25.25 0 1 1 0 .5.25.25 0 0 1 0-.5m3 0a.25.25 0 1 1 0 .5.25.25 0 0 1 0-.5z" stroke="#111" stroke-linecap="round" stroke-linejoin="round"/><path d="M7 4.25a.25.25 0 1 1 0 .5.25.25 0 0 1 0-.5zm3 0a.25.25 0 1 1 0 .5.25.25 0 0 1 0-.5z" stroke="#111" stroke-linecap="round" stroke-linejoin="round"/><path d="M10 4.25a.25.25 0 1 1 0 .5.25.25 0 0 1 0-.5zM6.5 7v15m0-15v15m0-8h17m-17 0h17" stroke="#111" stroke-linecap="round" stroke-linejoin="round"/></svg>