<svg width="24" height="24" fill="none" xmlns="http://www.w3.org/2000/svg"><path d="M4.5 8.5H14m-9.5 0H14m-9.5 3H14m-9.5 0H14m-9.5-6h7m-7 0h7m-7 9H12m-7.5 0H12m-7.5 3h4m-4 0h4m0 6h-7a1 1 0 0 1-1-1v-21a1 1 0 0 1 1-1h13.293a1 1 0 0 1 .707.293L19.207 4.5a1 1 0 0 1 .293.707V8.5" stroke="#111" stroke-linecap="round" stroke-linejoin="round"/><path d="M8.5 23.5h-7a1 1 0 0 1-1-1v-21a1 1 0 0 1 1-1h13.293a1 1 0 0 1 .707.293L19.207 4.5a1 1 0 0 1 .293.707V8.5m-3.8 13.8-4.2 1.2 1.2-4.2 7.179-7.179a2.12 2.12 0 1 1 3 3L15.7 22.3z" stroke="#111" stroke-linecap="round" stroke-linejoin="round"/><path d="m15.7 22.3-4.2 1.2 1.2-4.2 7.179-7.179a2.12 2.12 0 1 1 3 3L15.7 22.3zm3.279-9.279 3 3m-3-3 3 3M12.7 19.3l3 3m-3-3 3 3" stroke="#111" stroke-linecap="round" stroke-linejoin="round"/></svg>