<svg width="24" height="24" fill="none" xmlns="http://www.w3.org/2000/svg"><path d="M8.5 4.498h15m-15 0h15m-15 8h15m-15 0h15m-15 8h15m-15 0h15" stroke="#111" stroke-linecap="round" stroke-linejoin="round"/><path d="M3.542 6h-.709V2.575l-1.046.358v-.601l1.664-.612h.091V6z" fill="#111"/><path d="M3.542 6h-.709V2.575l-1.046.358v-.601l1.664-.612h.091V6zm.94 8H1.614v-.49l1.421-1.55c.205-.228.35-.418.437-.57a.928.928 0 0 0 .132-.463.697.697 0 0 0-.173-.492.59.59 0 0 0-.46-.188c-.23 0-.41.07-.536.211-.127.14-.19.333-.19.577h-.713c0-.26.059-.493.176-.7a1.23 1.23 0 0 1 .507-.486 1.61 1.61 0 0 1 .762-.173c.414 0 .74.104.978.313.24.207.36.494.36.862 0 .212-.06.436-.181.67-.12.233-.316.498-.59.794l-1.042 1.117h1.98V14z" fill="#111"/><path d="M4.482 14H1.614v-.49l1.421-1.55c.205-.228.35-.418.437-.57a.928.928 0 0 0 .132-.463.697.697 0 0 0-.173-.492.59.59 0 0 0-.46-.188c-.23 0-.41.07-.536.211-.127.14-.19.333-.19.577h-.713c0-.26.059-.493.176-.7a1.23 1.23 0 0 1 .507-.486 1.61 1.61 0 0 1 .762-.173c.414 0 .74.104.978.313.24.207.36.494.36.862 0 .212-.06.436-.181.67-.12.233-.316.498-.59.794l-1.042 1.117h1.98V14zm-2.044 5.542h.433c.219-.002.392-.059.519-.17.129-.111.193-.272.193-.483 0-.203-.054-.36-.161-.472-.106-.113-.268-.17-.486-.17a.676.676 0 0 0-.472.167.548.548 0 0 0-.185.43h-.712c0-.218.058-.417.173-.597.117-.18.28-.32.487-.419.209-.101.442-.152.7-.152.426 0 .76.107 1.002.322.244.213.366.51.366.89a.908.908 0 0 1-.185.543 1.142 1.142 0 0 1-.471.38c.234.08.412.207.533.378.123.172.184.377.184.616 0 .383-.131.687-.395.914-.262.226-.607.34-1.034.34-.41 0-.746-.11-1.008-.329-.262-.218-.393-.51-.393-.873h.712c0 .188.063.34.188.457.127.118.297.176.51.176.22 0 .394-.058.521-.175.127-.118.19-.288.19-.51 0-.225-.066-.398-.199-.519s-.33-.181-.592-.181h-.418v-.563z" fill="#111"/><path d="M2.438 19.542h.433c.219-.002.392-.059.519-.17.129-.111.193-.272.193-.483 0-.203-.054-.36-.161-.472-.106-.113-.268-.17-.486-.17a.676.676 0 0 0-.472.167.548.548 0 0 0-.185.43h-.712c0-.218.058-.417.173-.597.117-.18.28-.32.487-.419.209-.101.442-.152.7-.152.426 0 .76.107 1.002.322.244.213.366.51.366.89a.908.908 0 0 1-.185.543 1.142 1.142 0 0 1-.471.38c.234.08.412.207.533.378.123.172.184.377.184.616 0 .383-.131.687-.395.914-.262.226-.607.34-1.034.34-.41 0-.746-.11-1.008-.329-.262-.218-.393-.51-.393-.873h.712c0 .188.063.34.188.457.127.118.297.176.51.176.22 0 .394-.058.521-.175.127-.118.19-.288.19-.51 0-.225-.066-.398-.199-.519s-.33-.181-.592-.181h-.418v-.563z" fill="#111"/></svg>