<svg width="24" height="24" fill="none" xmlns="http://www.w3.org/2000/svg"><path d="M12 18.5v5m0-5v5m0-23a4 4 0 0 0-4 4v7a4 4 0 1 0 8 0v-7a4 4 0 0 0-4-4v0z" stroke="#111" stroke-linecap="round" stroke-linejoin="round"/><path d="M12 .5a4 4 0 0 0-4 4v7a4 4 0 1 0 8 0v-7a4 4 0 0 0-4-4v0z" stroke="#111" stroke-linecap="round" stroke-linejoin="round"/><path d="M19 8.5v3a7 7 0 1 1-14 0v-3" stroke="#111" stroke-linecap="round" stroke-linejoin="round"/><path d="M19 8.5v3a7 7 0 1 1-14 0v-3" stroke="#111" stroke-linecap="round" stroke-linejoin="round"/></svg>