<svg width="24" height="24" fill="none" xmlns="http://www.w3.org/2000/svg"><path d="M8.5 4.498h15m-15 0h15m-20 10a2 2 0 1 0 0-4 2 2 0 0 0 0 4z" stroke="#111" stroke-linecap="round" stroke-linejoin="round"/><path d="M3.5 14.498a2 2 0 1 0 0-4 2 2 0 0 0 0 4zm5-2h15m-15 0h15M1 20.25l1.5 1.5 3-3.75" stroke="#111" stroke-linecap="round" stroke-linejoin="round"/><path d="m1 20.25 1.5 1.5 3-3.75M1 5.25l1.5 1.5L5.5 3" stroke="#111" stroke-linecap="round" stroke-linejoin="round"/><path d="m1 5.25 1.5 1.5L5.5 3m3 17.498h15m-15 0h15" stroke="#111" stroke-linecap="round" stroke-linejoin="round"/></svg>