<svg width="24" height="24" fill="none" xmlns="http://www.w3.org/2000/svg"><path d="M21.5.501h-19a2 2 0 0 0-2 2v19a2 2 0 0 0 2 2h19a2 2 0 0 0 2-2v-19a2 2 0 0 0-2-2z" stroke="#111" stroke-linecap="round" stroke-linejoin="round"/><path d="M21.5.501h-19a2 2 0 0 0-2 2v19a2 2 0 0 0 2 2h19a2 2 0 0 0 2-2v-19a2 2 0 0 0-2-2z" stroke="#111" stroke-linecap="round" stroke-linejoin="round"/><path d="M8.25 9.251a3.752 3.752 0 1 1 4.562 3.662 1.007 1.007 0 0 0-.812.975V15" stroke="#111" stroke-linecap="round" stroke-linejoin="round"/><path d="M8.25 9.251a3.752 3.752 0 1 1 4.562 3.662 1.007 1.007 0 0 0-.812.975V15m0 2.5a.25.25 0 0 1 .049.495.25.25 0 0 1-.299-.245.25.25 0 0 1 .25-.25z" stroke="#111" stroke-linecap="round" stroke-linejoin="round"/><path d="M12 17.5a.25.25 0 0 1 .049.495.25.25 0 0 1-.299-.245.25.25 0 0 1 .25-.25z" stroke="#111" stroke-linecap="round" stroke-linejoin="round"/></svg>