<svg width="24" height="24" fill="none" xmlns="http://www.w3.org/2000/svg"><path fill-rule="evenodd" clip-rule="evenodd" d="M12.5.5a5 5 0 0 0-5 5v5.25a5 5 0 1 0 10 0V5.5a5 5 0 0 0-5-5zM9.672 2.672A4 4 0 0 1 16.5 5.5v5.25a4 4 0 1 1-8 0V5.5a4 4 0 0 1 1.172-2.828zM12.5 17.75a7 7 0 0 0 7-7V7a.5.5 0 0 1 1 0v3.75a8 8 0 0 1-7.5 7.984v3.516h5.5a.5.5 0 0 1 0 1h-12a.5.5 0 0 1 0-1H12v-3.516a8 8 0 0 1-7.5-7.984V7a.5.5 0 0 1 1 0v3.75a7 7 0 0 0 7 7z" fill="#111"/><path fill-rule="evenodd" clip-rule="evenodd" d="M12.5.5a5 5 0 0 0-5 5v5.25a5 5 0 1 0 10 0V5.5a5 5 0 0 0-5-5zM9.672 2.672A4 4 0 0 1 16.5 5.5v5.25a4 4 0 1 1-8 0V5.5a4 4 0 0 1 1.172-2.828zM12.5 17.75a7 7 0 0 0 7-7V7a.5.5 0 0 1 1 0v3.75a8 8 0 0 1-7.5 7.984v3.516h5.5a.5.5 0 0 1 0 1h-12a.5.5 0 0 1 0-1H12v-3.516a8 8 0 0 1-7.5-7.984V7a.5.5 0 0 1 1 0v3.75a7 7 0 0 0 7 7z" fill="#111"/></svg>