<svg width="24" height="24" fill="none" xmlns="http://www.w3.org/2000/svg"><path d="M.5 2.72a1 1 0 0 1 1.663-.749l10.49 9.28a1 1 0 0 1 0 1.5l-10.49 9.28A1 1 0 0 1 .5 21.28V2.72z" stroke="#111" stroke-linecap="round" stroke-linejoin="round"/><path d="M.5 2.72a1 1 0 0 1 1.663-.749l10.49 9.28a1 1 0 0 1 0 1.5l-10.49 9.28A1 1 0 0 1 .5 21.28V2.72zM22.5.5h-4a1 1 0 0 0-1 1v21a1 1 0 0 0 1 1h4a1 1 0 0 0 1-1v-21a1 1 0 0 0-1-1z" stroke="#111" stroke-linecap="round" stroke-linejoin="round"/><path d="M22.5.5h-4a1 1 0 0 0-1 1v21a1 1 0 0 0 1 1h4a1 1 0 0 0 1-1v-21a1 1 0 0 0-1-1z" stroke="#111" stroke-linecap="round" stroke-linejoin="round"/></svg>