<svg width="24" height="24" fill="none" xmlns="http://www.w3.org/2000/svg"><path d="M9 3H5a1 1 0 0 0-1 1v17a1 1 0 0 0 1 1h4a1 1 0 0 0 1-1V4a1 1 0 0 0-1-1z" stroke="#111" stroke-linecap="round" stroke-linejoin="round"/><path d="M9 3H5a1 1 0 0 0-1 1v17a1 1 0 0 0 1 1h4a1 1 0 0 0 1-1V4a1 1 0 0 0-1-1zm10 0h-4a1 1 0 0 0-1 1v17a1 1 0 0 0 1 1h4a1 1 0 0 0 1-1V4a1 1 0 0 0-1-1z" stroke="#111" stroke-linecap="round" stroke-linejoin="round"/><path d="M19 3h-4a1 1 0 0 0-1 1v17a1 1 0 0 0 1 1h4a1 1 0 0 0 1-1V4a1 1 0 0 0-1-1z" stroke="#111" stroke-linecap="round" stroke-linejoin="round"/></svg>