<svg width="24" height="24" fill="none" xmlns="http://www.w3.org/2000/svg"><path d="M23.5 21.28a1 1 0 0 1-1.663.749l-10.49-9.28a1 1 0 0 1 0-1.5l10.49-9.28a1 1 0 0 1 1.663.751v18.56z" stroke="#111" stroke-linecap="round" stroke-linejoin="round"/><path d="M23.5 21.28a1 1 0 0 1-1.663.749l-10.49-9.28a1 1 0 0 1 0-1.5l10.49-9.28a1 1 0 0 1 1.663.751v18.56zM5.5.5h-4a1 1 0 0 0-1 1v21a1 1 0 0 0 1 1h4a1 1 0 0 0 1-1v-21a1 1 0 0 0-1-1z" stroke="#111" stroke-linecap="round" stroke-linejoin="round"/><path d="M5.5.5h-4a1 1 0 0 0-1 1v21a1 1 0 0 0 1 1h4a1 1 0 0 0 1-1v-21a1 1 0 0 0-1-1z" stroke="#111" stroke-linecap="round" stroke-linejoin="round"/></svg>