<svg width="24" height="24" fill="none" xmlns="http://www.w3.org/2000/svg"><g clip-path="url(#a)" fill-rule="evenodd" clip-rule="evenodd" fill="#111"><path d="M3 11.25a9.75 9.75 0 0 1 9.75-9.75c3.208 0 5.976 1.77 7.717 4.5H15.75a.75.75 0 0 0 0 1.5h5.985a.745.745 0 0 0 .43-.126.75.75 0 0 0 .335-.64V.75a.75.75 0 0 0-1.5 0v3.415C19.012 1.648 16.12 0 12.75 0 6.537 0 1.5 5.037 1.5 11.25a.75.75 0 0 0 1.5 0zm20.25.75a.75.75 0 0 1 .75.75C24 18.963 18.963 24 12.75 24c-3.37 0-6.263-1.648-8.25-4.166v3.416a.75.75 0 0 1-1.5 0v-6a.747.747 0 0 1 .765-.75H9.75a.75.75 0 0 1 0 1.5H5.034c1.74 2.73 4.508 4.5 7.716 4.5a9.75 9.75 0 0 0 9.75-9.75.75.75 0 0 1 .75-.75z"/><path d="M3 11.25a9.75 9.75 0 0 1 9.75-9.75c3.208 0 5.976 1.77 7.717 4.5H15.75a.75.75 0 0 0 0 1.5h5.985a.745.745 0 0 0 .43-.126.75.75 0 0 0 .335-.64V.75a.75.75 0 0 0-1.5 0v3.415C19.012 1.648 16.12 0 12.75 0 6.537 0 1.5 5.037 1.5 11.25a.75.75 0 0 0 1.5 0zm20.25.75a.75.75 0 0 1 .75.75C24 18.963 18.963 24 12.75 24c-3.37 0-6.263-1.648-8.25-4.166v3.416a.75.75 0 0 1-1.5 0v-6a.747.747 0 0 1 .765-.75H9.75a.75.75 0 0 1 0 1.5H5.034c1.74 2.73 4.508 4.5 7.716 4.5a9.75 9.75 0 0 0 9.75-9.75.75.75 0 0 1 .75-.75z"/></g><defs><clipPath id="a"><path fill="#fff" d="M0 0h24v24H0z"/></clipPath></defs></svg>