<svg width="24" height="24" fill="none" xmlns="http://www.w3.org/2000/svg"><path fill-rule="evenodd" clip-rule="evenodd" d="M17.5 1.5a.5.5 0 0 0-.777-.416L7.849 7H.5a.5.5 0 0 0-.5.5v9a.5.5 0 0 0 .5.5h7.349l8.874 5.916a.5.5 0 0 0 .777-.416v-21zM8.277 7.916 16.5 2.434v19.132l-8.223-5.482A.5.5 0 0 0 8 16H1V8h7a.5.5 0 0 0 .277-.084zM21.1 6.287a.5.5 0 0 0-.7.715 6.974 6.974 0 0 1 2.1 4.997 6.97 6.97 0 0 1-2.002 4.9.5.5 0 1 0 .714.7A7.97 7.97 0 0 0 23.5 12a7.974 7.974 0 0 0-2.4-5.712z" fill="#111"/><path fill-rule="evenodd" clip-rule="evenodd" d="M17.5 1.5a.5.5 0 0 0-.777-.416L7.849 7H.5a.5.5 0 0 0-.5.5v9a.5.5 0 0 0 .5.5h7.349l8.874 5.916a.5.5 0 0 0 .777-.416v-21zM8.277 7.916 16.5 2.434v19.132l-8.223-5.482A.5.5 0 0 0 8 16H1V8h7a.5.5 0 0 0 .277-.084zM21.1 6.287a.5.5 0 0 0-.7.715 6.974 6.974 0 0 1 2.1 4.997 6.97 6.97 0 0 1-2.002 4.9.5.5 0 1 0 .714.7A7.97 7.97 0 0 0 23.5 12a7.974 7.974 0 0 0-2.4-5.712z" fill="#111"/></svg>