<svg width="24" height="24" fill="none" xmlns="http://www.w3.org/2000/svg"><path d="M13.65 19.126h-3.3a.825.825 0 1 0 0 1.65h3.3a.825.825 0 0 0 0-1.65z" fill="#111"/><path d="M13.65 19.126h-3.3a.825.825 0 1 0 0 1.65h3.3a.825.825 0 0 0 0-1.65zM20.8 9.5a1.1 1.1 0 0 0 0 2.2h1.1a1.1 1.1 0 0 0 0-2.2h-1.1z" fill="#111"/><path d="M20.8 9.5a1.1 1.1 0 0 0 0 2.2h1.1a1.1 1.1 0 0 0 0-2.2h-1.1zm-1.1-2.2a1.1 1.1 0 0 0 .778-.322l1.1-1.1a1.1 1.1 0 1 0-1.556-1.556l-1.1 1.1a1.1 1.1 0 0 0 .778 1.879z" fill="#111"/><path d="M19.7 7.3a1.1 1.1 0 0 0 .778-.322l1.1-1.1a1.1 1.1 0 1 0-1.556-1.556l-1.1 1.1a1.1 1.1 0 0 0 .778 1.879zM2.1 11.7h1.1a1.1 1.1 0 0 0 0-2.2H2.1a1.1 1.1 0 0 0 0 2.2z" fill="#111"/><path d="M2.1 11.7h1.1a1.1 1.1 0 0 0 0-2.2H2.1a1.1 1.1 0 0 0 0 2.2zm1.422-4.722a1.1 1.1 0 1 0 1.556-1.556l-1.1-1.1a1.1 1.1 0 0 0-1.556 1.556l1.1 1.1z" fill="#111"/><path d="M3.522 6.978a1.1 1.1 0 1 0 1.556-1.556l-1.1-1.1a1.1 1.1 0 0 0-1.556 1.556l1.1 1.1zm16.5 9.9a1.098 1.098 0 0 0 1.795-.357 1.098 1.098 0 0 0-.24-1.2l-1.1-1.1a1.1 1.1 0 0 0-1.555 1.557l1.1 1.1z" fill="#111"/><path d="M20.022 16.878a1.098 1.098 0 0 0 1.795-.357 1.098 1.098 0 0 0-.24-1.2l-1.1-1.1a1.1 1.1 0 0 0-1.555 1.557l1.1 1.1zm-16.5-2.656-1.1 1.1a1.1 1.1 0 0 0 1.556 1.556l1.1-1.1a1.1 1.1 0 1 0-1.556-1.556z" fill="#111"/><path d="m3.522 14.222-1.1 1.1a1.1 1.1 0 0 0 1.556 1.556l1.1-1.1a1.1 1.1 0 1 0-1.556-1.556zM18.05 10.6a6.05 6.05 0 1 0-8.943 5.292.277.277 0 0 1 .143.242v.517a1.1 1.1 0 0 0 1.1 1.1h3.3a1.1 1.1 0 0 0 1.1-1.1v-.517a.277.277 0 0 1 .143-.242A6.051 6.051 0 0 0 18.05 10.6z" fill="#111"/><path d="M18.05 10.6a6.05 6.05 0 1 0-8.943 5.292.277.277 0 0 1 .143.242v.517a1.1 1.1 0 0 0 1.1 1.1h3.3a1.1 1.1 0 0 0 1.1-1.1v-.517a.277.277 0 0 1 .143-.242A6.051 6.051 0 0 0 18.05 10.6z" fill="#111"/></svg>