<svg width="24" height="24" fill="none" xmlns="http://www.w3.org/2000/svg"><path d="M12 1.337C5.659 1.337.5 5.587.5 10.812a8.592 8.592 0 0 0 3.175 6.539l-2.3 4.587a.5.5 0 0 0 .658.677l6.149-2.862a13.73 13.73 0 0 0 3.818.532c6.341 0 11.5-4.25 11.5-9.473 0-5.223-5.159-9.475-11.5-9.475zm.5 15.538a1 1 0 1 1 0-2 1 1 0 0 1 0 2zm1.5-5.062a1.252 1.252 0 0 0-.75 1.146v.416a.75.75 0 1 1-1.5 0v-.416a2.75 2.75 0 0 1 1.65-2.521 2.25 2.25 0 1 0-3.15-2.063.75.75 0 1 1-1.5 0A3.75 3.75 0 1 1 14 11.813z" fill="#111"/><path d="M12 1.337C5.659 1.337.5 5.587.5 10.812a8.592 8.592 0 0 0 3.175 6.539l-2.3 4.587a.5.5 0 0 0 .658.677l6.149-2.862a13.73 13.73 0 0 0 3.818.532c6.341 0 11.5-4.25 11.5-9.473 0-5.223-5.159-9.475-11.5-9.475zm.5 15.538a1 1 0 1 1 0-2 1 1 0 0 1 0 2zm1.5-5.062a1.252 1.252 0 0 0-.75 1.146v.416a.75.75 0 1 1-1.5 0v-.416a2.75 2.75 0 0 1 1.65-2.521 2.25 2.25 0 1 0-3.15-2.063.75.75 0 1 1-1.5 0A3.75 3.75 0 1 1 14 11.813z" fill="#111"/></svg>