<svg width="24" height="24" fill="none" xmlns="http://www.w3.org/2000/svg"><path fill-rule="evenodd" clip-rule="evenodd" d="M6.25 6h1.5a.25.25 0 0 1 .25.25v1.5a.25.25 0 0 1-.25.25h-1.5A.25.25 0 0 1 6 7.75v-1.5A.25.25 0 0 1 6.25 6zm0 5h1.5a.25.25 0 0 1 .25.25v1.5a.25.25 0 0 1-.25.25h-1.5a.25.25 0 0 1-.25-.25v-1.5a.25.25 0 0 1 .25-.25zm1.5 5h-1.5a.25.25 0 0 0-.25.25v1.5c0 .138.112.25.25.25h1.5a.25.25 0 0 0 .25-.25v-1.5a.25.25 0 0 0-.25-.25zm3.5-10h1.5a.25.25 0 0 1 .25.25v1.5a.25.25 0 0 1-.25.25h-1.5a.25.25 0 0 1-.25-.25v-1.5a.25.25 0 0 1 .25-.25zm1.5 5h-1.5a.25.25 0 0 0-.25.25v1.5c0 .138.112.25.25.25h1.5a.25.25 0 0 0 .25-.25v-1.5a.25.25 0 0 0-.25-.25zm-1.5 5h1.5a.25.25 0 0 1 .25.25v1.5a.25.25 0 0 1-.25.25h-1.5a.25.25 0 0 1-.25-.25v-1.5a.25.25 0 0 1 .25-.25zm6.5-10h-1.5a.25.25 0 0 0-.25.25v1.5c0 .138.112.25.25.25h1.5a.25.25 0 0 0 .25-.25v-1.5a.25.25 0 0 0-.25-.25zm-1.5 5h1.5a.25.25 0 0 1 .25.25v1.5a.25.25 0 0 1-.25.25h-1.5a.25.25 0 0 1-.25-.25v-1.5a.25.25 0 0 1 .25-.25zm1.5 5h-1.5a.25.25 0 0 0-.25.25v1.5c0 .138.112.25.25.25h1.5a.25.25 0 0 0 .25-.25v-1.5a.25.25 0 0 0-.25-.25z" fill="#111"/><path fill-rule="evenodd" clip-rule="evenodd" d="M6.25 6h1.5a.25.25 0 0 1 .25.25v1.5a.25.25 0 0 1-.25.25h-1.5A.25.25 0 0 1 6 7.75v-1.5A.25.25 0 0 1 6.25 6zm0 5h1.5a.25.25 0 0 1 .25.25v1.5a.25.25 0 0 1-.25.25h-1.5a.25.25 0 0 1-.25-.25v-1.5a.25.25 0 0 1 .25-.25zm1.5 5h-1.5a.25.25 0 0 0-.25.25v1.5c0 .138.112.25.25.25h1.5a.25.25 0 0 0 .25-.25v-1.5a.25.25 0 0 0-.25-.25zm3.5-10h1.5a.25.25 0 0 1 .25.25v1.5a.25.25 0 0 1-.25.25h-1.5a.25.25 0 0 1-.25-.25v-1.5a.25.25 0 0 1 .25-.25zm1.5 5h-1.5a.25.25 0 0 0-.25.25v1.5c0 .138.112.25.25.25h1.5a.25.25 0 0 0 .25-.25v-1.5a.25.25 0 0 0-.25-.25zm-1.5 5h1.5a.25.25 0 0 1 .25.25v1.5a.25.25 0 0 1-.25.25h-1.5a.25.25 0 0 1-.25-.25v-1.5a.25.25 0 0 1 .25-.25zm6.5-10h-1.5a.25.25 0 0 0-.25.25v1.5c0 .138.112.25.25.25h1.5a.25.25 0 0 0 .25-.25v-1.5a.25.25 0 0 0-.25-.25zm-1.5 5h1.5a.25.25 0 0 1 .25.25v1.5a.25.25 0 0 1-.25.25h-1.5a.25.25 0 0 1-.25-.25v-1.5a.25.25 0 0 1 .25-.25zm1.5 5h-1.5a.25.25 0 0 0-.25.25v1.5c0 .138.112.25.25.25h1.5a.25.25 0 0 0 .25-.25v-1.5a.25.25 0 0 0-.25-.25z" fill="#111"/></svg>